<?xml version="1.0" encoding="utf-8"?><!DOCTYPE svg PUBLIC "-//W3C//DTD SVG 1.1//EN" "http://www.w3.org/Graphics/SVG/1.1/DTD/svg11.dtd"><svg version="1.1" id="Layer_1" xmlns="http://www.w3.org/2000/svg" xmlns:xlink="http://www.w3.org/1999/xlink" x="0px" y="0px" width="500px" height="254.2px" viewBox="0 0 500 254.2" enable-background="new 0 0 500 254.2" xml:space="preserve"><g><rect x="0.3" y="2" fill="#ED2024" width="499.7" height="84.7"/><rect x="0.3" y="84.3" fill="#FDFDFE" width="499.7" height="84.7"/><rect x="0.3" y="169" fill="#2D3189" width="499.7" height="84.7"/></g><path fill="none" stroke="#FDFDFE" stroke-miterlimit="10" d="M203.1,83.1l-10.6-24.9l8.7-14.3l13.7,5L225.5,37l12.5,7.5l12.5-8.7l11.2,9.3l13.7-6.9l10,10.6l13.7-6.2l8.7,15l-11.2,24.9"/><path fill="#2491D0" d="M201.3,44.1l-8.6,14.1l10.5,24.9c0,0,15.2-6.7,18.8-6.7l-7.1-27.5L201.3,44.1z"/><path fill="#2D3189" d="M225.6,37.3L214.9,49l7,27.7c-0.1-0.4,12.3-3.3,18.8-3.7L238,44.7L225.6,37.3z"/><path fill="#2D3189" d="M275.3,38.5L285.5,49L279,75.7c0.1-0.4-13-2.9-19.6-3.4l2.2-26.9L275.3,38.5z"/><path fill="#ED2024" d="M238,44.7l0.8,7.1c0,0-20.4,2.5-22.2,3.9l-1.7-6.8C214.9,48.9,224.8,45,238,44.7z"/><path fill="#ED2024" d="M217.9,61l1.9,7.3c0,0,8.8-3.3,20.3-3.9l-0.7-7C239.4,57.4,221,59.3,217.9,61z"/><path fill="#2491D0" d="M238,44.7l12.4-8.8l11.2,9.4l-2.1,27.2c-4.9-0.9-15.7-0.1-18.8,0.4L238,44.7z"/><path fill="#ED2024" d="M267.2,51.9c0,0,2.7-2.5,5.7-0.8c0,0,1.8,1.3,4.5,1.2l-3.4,0.6c0,0,2,1.7,4.8,1.9c0,0-4.3,1.2-5.8-1.4c0,0-1.1-2-5.4-0.8L267.2,51.9z"/><path fill="#EAE71C" stroke="#030202" stroke-width="0.25" stroke-miterlimit="10" d="M264.8,51.5l1.6,0.1l0,0.6l3.2,0l1.1,0.8l-1.8,0.7l-0.2,1.1c0,0,1.5,3,7.7,3.1l3.6,0l-2.5,3l0.3,2l-1.7,2.2l-1.5,2l-1.3-0.1l1.5-1.6c0,0,0.5-2-1.3-1.3l-2.5,2.4l-0.8-0.6l1.4-1.6l-0.1-1.1h-2.4l-1.4,3.1l-0.9-0.2c0,0,0.8-1.2,1.1-2.8c0,0,0-2-1.1-0.1l-0.4,1.7l-1.2-0.3c0,0,1.3-2.1,1.3-3.4c0,0-1.5-2.5,0.1-3.6v-2.6l-1.3,0l-0.6-0.8l1.3-1.3L264.8,51.5z"/><ellipse fill="#ED2024" cx="265.6" cy="65" rx="0.8" ry="0.5"/><ellipse fill="#ED2024" cx="267.2" cy="66.6" rx="0.8" ry="0.5"/><ellipse fill="#ED2024" cx="270.5" cy="66.5" rx="0.8" ry="0.5"/><ellipse fill="#ED2024" cx="274" cy="67.4" rx="0.8" ry="0.5"/><path fill="#2491D0" d="M298.9,42.9l-13.4,6.2l-6.4,26.3c0,0,15,4.8,17.5,6.9l10.9-24.6L298.9,42.9z"/><path fill="#FDFDFE" d="M283.2,58.4l-0.5,1.8c0,0,16.2,4,20.6,7.1l0.8-1.9C304.1,65.4,285.2,57.5,283.2,58.4z"/><path fill="#FDFDFE" d="M280.9,67.9l-0.4,1.8c0,0,14.6,4,18.7,7.1l0.7-1.9C299.8,74.9,282.7,67.1,280.9,67.9z"/><path fill="#ED2024" d="M282.5,61.1l-1.5,6.1c0,0,15.7,4.2,19.3,6.8l2.6-5.9C302.9,68,285.1,60.3,282.5,61.1z"/><path fill="none" stroke="#FDFDFE" stroke-miterlimit="10" d="M296.6,82.5c0,0-37.4-23.7-93.4,0.6"/><polygon fill="#F6DB13" stroke="#FDFDFE" stroke-miterlimit="10" points="204.5,55.9 207.2,55 206.1,57.6 208.2,59.4 205.4,59.7 204.9,62.5 203.2,60.3 200.5,61.2 201.6,58.6 199.5,56.8 202.3,56.4 202.8,53.7 "/><path fill="#FDFDFE" stroke="#2B3990" stroke-width="0.25" stroke-miterlimit="10" d="M213.7,64.9c0,0-3,14-13.2,4.8c0,0,2.6,6.4,9.1,4.4C209.7,74.2,215.8,72,213.7,64.9z"/><polygon fill="#EAE71C" stroke="#49481D" stroke-width="0.25" stroke-miterlimit="10" points="251.5,47.6 254,48.3 255.7,46.6 257.3,48.2 259.4,47.3 258.3,49.8 260,49.8 258.9,51.5 260,51.5 258.9,52.7 259.8,53.9 258.8,53.8 259.1,54.8 258.1,54.7 258.4,55.8 257.1,55.5 257.2,56.5 256.2,55.6 256.2,56.9 255,56.9 255,55.7 253.4,55.9 253.6,54.9 252.6,55.2 253.2,54.4 252.1,54.4 252.5,53.3 252.5,52.8 251.2,52.8 251.2,51.9 252.1,51.9 252.1,50.7 251.4,49.7 253.2,49.6 "/><ellipse fill="#49481D" cx="254.5" cy="51.5" rx="0.5" ry="0.5"/><ellipse fill="#49481D" cx="256.6" cy="51.5" rx="0.5" ry="0.4"/><ellipse fill="#49481D" cx="255.5" cy="52.8" rx="0.5" ry="0.5"/><polygon fill="#EAE71C" stroke="#49481D" stroke-width="0.25" stroke-miterlimit="10" points="240.7,47.6 243.2,48.3 244.9,46.6 246.5,48.2 248.6,47.3 247.5,49.8 249.2,49.8 248.1,51.5 249.2,51.5 248.1,52.7 249,53.9 248,53.8 248.3,54.8 247.3,54.7 247.6,55.8 246.3,55.5 246.4,56.5 245.4,55.6 245.4,56.9 244.2,56.9 244.2,55.7 242.6,55.9 242.8,54.9 241.8,55.2 242.4,54.4 241.3,54.4 241.7,53.3 241.7,52.8 240.4,52.8 240.4,51.9 241.3,51.9 241.3,50.7 240.6,49.7 242.4,49.6 "/><ellipse fill="#49481D" cx="243.7" cy="51.5" rx="0.5" ry="0.5"/><ellipse fill="#49481D" cx="245.8" cy="51.5" rx="0.5" ry="0.4"/><ellipse fill="#49481D" cx="244.7" cy="52.8" rx="0.5" ry="0.5"/><polygon fill="#EAE71C" stroke="#49481D" stroke-width="0.25" stroke-miterlimit="10" points="246.1,59.6 248.6,60.4 250.3,58.7 251.9,60.2 254,59.4 252.9,61.9 254.6,61.9 253.5,63.6 254.6,63.6 253.5,64.7 254.4,65.9 253.4,65.8 253.7,66.8 252.7,66.7 253,67.8 251.7,67.6 251.8,68.5 250.8,67.6 250.8,69 249.6,69 249.6,67.7 248,68 248.2,66.9 247.2,67.3 247.8,66.5 246.7,66.5 247.1,65.4 247.1,64.8 245.8,64.8 245.8,64 246.7,64 246.7,62.7 246,61.7 247.8,61.7 "/><ellipse fill="#49481D" cx="249.1" cy="63.6" rx="0.5" ry="0.5"/><ellipse fill="#49481D" cx="251.2" cy="63.5" rx="0.5" ry="0.4"/><ellipse fill="#49481D" cx="250.1" cy="64.8" rx="0.5" ry="0.5"/><polygon fill="#F6DB13" stroke="#FDFDFE" stroke-miterlimit="10" points="297,51.3 299.7,52 297.3,53.5 298.1,56.2 295.6,54.9 293.6,56.9 293.5,54.1 290.7,53.4 293.1,51.9 292.4,49.2 294.9,50.4 296.9,48.4 "/><path d="M282.5,62.8l0,0.6L284,64l1.3,1.9h-2.8l0.1,0.4l3-0.3l1.7,0.9h-1.9l0.1,0.6l3.4-0.2l3.2,0.5l-3,0.3l0.3,0.9h3.1l3,0.8c0,0,0.5,0.7-0.6,0.6l0.3,0.8l1.3-0.2c0,0,1-2-1.1-2.3l-0.1-1.3l3.9,1.9l0.6-1.8l-4.4-1.2c0,0-3.3-1.7-5.4-0.9l-3.9-1.9l-0.3-1.4L282.5,62.8z"/><path fill="#FDFDFE" d="M252,83.5L252,83.5c0,0-0.9,0-1,0c-0.1,0,1,0-1,0v0.1c-4,0.3-47-0.1-47-0.1v64c10,39.8,44,41.8,47,41.9v0c0,0,0.9,0,1,0c0.1,0,1,0,1,0v0c3-0.1,36-2.2,45-41.9v-64C297,83.5,256,83.9,252,83.5z"/><rect x="205.1" y="85.8" fill="#ED2024" width="17.7" height="20.4"/><rect x="241.9" y="85.8" fill="#ED2024" width="17.7" height="20.4"/><rect x="223.6" y="106.3" fill="#ED2024" width="17.7" height="20.4"/><rect x="260" y="106.3" fill="#ED2024" width="17.7" height="20.4"/><rect x="223.6" y="146.2" fill="#ED2024" width="17.7" height="20.4"/><rect x="260" y="146.2" fill="#ED2024" width="17.7" height="20.4"/><rect x="278.4" y="85.8" fill="#ED2024" width="17.7" height="20.4"/><rect x="205.1" y="126.1" fill="#ED2024" width="17.7" height="20.4"/><rect x="241.9" y="126.1" fill="#ED2024" width="17.7" height="20.4"/><rect x="278.4" y="126.1" fill="#ED2024" width="17.7" height="20.4"/><path fill="#ED2024" d="M212,166.6c0,0,4,5.2,10,10.4v-10.4C222,166.6,211.8,166.8,212,166.6z"/><path fill="#ED2024" d="M288,166.6c0,0-3,5.2-10,10.4v-10.4C278,166.6,288.2,166.8,288,166.6z"/><path fill="#ED2024" d="M241.3,166.9H260v18.8c0,0-10.6,3.3-18.5,0.2C241.5,185.8,241.3,165.9,241.3,166.9z"/></svg>