<?xml version="1.0" encoding="utf-8"?><!DOCTYPE svg PUBLIC "-//W3C//DTD SVG 1.1//EN" "http://www.w3.org/Graphics/SVG/1.1/DTD/svg11.dtd"><svg version="1.1" id="Layer_1" xmlns="http://www.w3.org/2000/svg" xmlns:xlink="http://www.w3.org/1999/xlink" x="0px" y="0px" width="158.1px" height="86.3px" viewBox="0 0 158.1 86.3" enable-background="new 0 0 158.1 86.3" xml:space="preserve"><rect x="57.6" y="8.8" fill="#FED206" width="47.1" height="70.7"/><rect x="104.7" y="8.8" fill="#CD2031" width="47.1" height="70.7"/><rect x="10.9" y="8.8" fill="#204CA1" width="47.1" height="70.7"/><path fill="#B07F55" d="M74.8,35.1h16.8c0,0-0.9,0.1-0.9,1.7V49c0,0,0,4.6,5.4,8.6V32c0,0-1-2.2-3.1-3.7l-2.6,2.5v2.3c0,0-1.4,0.1-1.9,0.2c-1.7,0.5-2,1.3-2,1.3s-2.1-1.1-2-4l0.7-1.1l0-1h0.4l-0.1-0.7l0.2-0.2l-0.5-0.4l0.1-0.3c0,0-2.7-1.5-3.3-1.1c0,0-1.2-0.1-1.2,0.5l0.5,0.9l0,0.5l-0.4,0.5c0,0,1.2,3.9-1.1,6l-1.2-0.4l-2.2-0.9l-1.4,0.1v-2.3L72.6,29c0,0-1.1,0.6-1.4,0.9c-0.4,0.4-1.2,1.8-1.2,1.8v24.4c0,0,4.5-2.3,5.1-7.7V36C75.1,36,75.3,36,74.8,35.1z"/><path fill="none" stroke="#000000" stroke-width="0.1" stroke-miterlimit="10" d="M80.4,24.9l-0.3,0.4h-0.7v-1l0.3-0.3c-0.4-0.3-0.6-0.1-0.6-0.1v0c0,0-0.2-0.1-0.6,0.1l0.3,0.3v0.9h-0.8l-0.3-0.4c0,0-0.3,0.4,0,1.1l0.3-0.4h0.8v3.1l-0.2,0.2l0.5,0.5v0l0.5-0.5l-0.2-0.2v-3.1h0.7l0.3,0.4C80.7,25.3,80.4,24.9,80.4,24.9z"/><path d="M79,27.1c0,0,0.4-1.2,1.6-0.8l0.2,0.3C80.8,26.6,79.5,26.2,79,27.1z"/><path fill="none" stroke="#000000" stroke-width="0.1" stroke-miterlimit="10" d="M79.1,27c0,0,1.3-0.4,2.2,0.6"/><path fill="#CD2031" stroke="#000000" stroke-width="0.1" stroke-miterlimit="10" d="M81.2,27.5c0,0-1.1-0.9-2-0.5c0,0,0.2-0.6,1.5-0.4C80.7,26.6,81.2,27.1,81.2,27.5z"/><path d="M84.4,27.4l-1.1-0.8l-1.3,0c0,0-0.6-0.6-1.2-0.2c0,0,0.9,0.2,1.3,0.4l1.2,0L84.4,27.4z"/><path d="M80.6,26.5c0,0,0-0.5,0.6-0.5h1.4c0,0-1.4-0.9,2.6,0.8l0.5-0.1l-0.4,0.3l0.7,0.6l-0.5,0.1l0.3,0.9l-0.5-0.2l0,1l-0.4,0.8c0,0,0,2.2,0.8,3.1c0,0,0.9,1.1,1.4,1.2c0,0-1.2,0.1-2.3-0.8c0,0,0.1,0.7,0.4,0.8c0,0-1,0.2-1.7-0.9l-0.4,0.8l-0.4-0.8c0,0-0.6,0.9-1.7,0.9l0.5-0.9c0,0-0.5,0.8-2.4,0.9c0,0,2.3-0.6,2.3-4.3c0,0,0.1-2.3-1.8-3c0,0,1.1,0.2,1.5,0.8c0,0,1.4,3-0.7,5.8c0,0,1.2-0.6,1.6-1.5c0,0,0.1,1.2-0.5,1.8c0,0,0.9-0.3,1.2-1.1l0.5,0.6l0.4-0.7c0,0,0.5,1,1.3,1.2c0,0-0.8-1-0.6-1.7c0,0,0.8,1.2,1.7,1.2c0,0-2-2.3-0.7-4.5l0-1.4l0.5,0.2l-0.4-0.6l0.3-0.3L85,27.1l-1.8-1.1C83.2,26.1,81.1,25.7,80.6,26.5z"/><rect x="81.7" y="30.4" width="0.2" height="2.7"/><rect x="82.5" y="30.4" width="0.2" height="2.7"/><rect x="83.2" y="30.4" width="0.2" height="2.7"/><rect x="83.9" y="30.4" width="0.2" height="2.7"/><path d="M78.9,34.2c0,0-2.6-2.1-3.6-1.5v-2.2l-2.8-2.4c0,0-2.2,1.8-3.2,3.6v25.5c0,0,1.5-0.9,1.9-1.9c0,0,0.3,0.7,2-1.3h-0.5L72,54.8l-0.4-0.3L70.3,56V31.7c0,0,0.4-1.6,2.1-2.7l1.9,1.6v2.5C74.3,33.1,76.3,33,78.9,34.2z"/><path d="M78,34l-0.8,0.5L77,33.6c0,0-1.1,0.4-1.1,0.9l-0.5-1.1l-1.7-1.7l-0.9,0.5l-0.8-1l-0.9,0.8l-0.5-0.9l-0.2,0.5l0.4,1l1.1-0.8l0.7,1l1-0.5c0,0,1.6,1,2.3,2.8c0,0,0.3-1.1,0.9-1l0.4,0.9L78,34z"/><path fill="none" stroke="#000000" stroke-width="0.2" stroke-miterlimit="10" d="M70,34.6V34l0.7-0.7l0.9,0.7l0.9-0.6l1.1,0.5l1-1l0,0.2c0,0-0.7,1.3-1.2,1.6l-1-0.8l-0.8,0.8L70.9,34L70,34.6z"/><polygon points="70.3,35.4 70.3,36 70.9,36.7 71.8,35.9 72.6,36.7 73.6,36 74.4,36.7 75.3,35.9 75.1,35.4 74.4,35.9 73.5,35.3 72.6,36 71.7,35.2 71,35.9 "/><path fill="none" stroke="#000000" stroke-width="0.2" stroke-miterlimit="10" d="M72.1,30.3c0,0-0.7,1-0.4,1.7v22.9"/><path fill="none" stroke="#000000" stroke-width="0.2" stroke-miterlimit="10" d="M74,30.8c0,0-0.6,0.6-0.3,1.2v19.2"/><line fill="none" stroke="#000000" stroke-width="0.2" stroke-miterlimit="10" x1="70.9" y1="31.9" x2="70.9" y2="36.5"/><line fill="none" stroke="#000000" stroke-width="0.2" stroke-miterlimit="10" x1="72.6" y1="31.9" x2="72.6" y2="36.5"/><line fill="none" stroke="#000000" stroke-width="0.2" stroke-miterlimit="10" x1="74.6" y1="32.5" x2="74.6" y2="36.5"/><path d="M86.7,34.2c0,0,2.6-2.1,3.6-1.5v-2.2l2.8-2.4c0,0,2.2,1.8,3.2,3.6v25.5c0,0-1.5-0.9-1.9-1.9c0,0-0.3,0.7-2-1.3H93l0.7,0.7l0.4-0.3l1.2,1.6V31.7c0,0-0.4-1.6-2.1-2.7l-1.9,1.6v2.5C91.3,33.1,89.4,33,86.7,34.2z"/><path d="M87.7,34l0.8,0.5l0.2-0.9c0,0,1.1,0.4,1.1,0.9l0.5-1.1l1.7-1.7l0.9,0.5l0.8-1l0.9,0.8l0.5-0.9l0.2,0.5l-0.4,1l-1.1-0.8l-0.7,1l-1-0.5c0,0-1.6,1-2.3,2.8c0,0-0.3-1.1-0.9-1l-0.4,0.9L87.7,34z"/><path fill="none" stroke="#000000" stroke-width="0.2" stroke-miterlimit="10" d="M95.6,34.6V34l-0.7-0.7L94,34l-0.9-0.6l-1,0.5l-1-1l0,0.2c0,0,0.7,1.3,1.2,1.6l1-0.8l0.8,0.8l0.8-0.8L95.6,34.6z"/><polygon points="95.3,35.4 95.3,36 94.8,36.7 93.9,35.9 93.1,36.7 92.2,36 91.4,36.7 90.5,35.9 90.6,35.4 91.3,35.9 92.2,35.3 93.1,36 94,35.2 94.7,35.9 "/><path fill="none" stroke="#000000" stroke-width="0.2" stroke-miterlimit="10" d="M93.5,30.3c0,0,0.7,1,0.4,1.7v22.9"/><path fill="none" stroke="#000000" stroke-width="0.2" stroke-miterlimit="10" d="M91.6,30.8c0,0,0.6,0.6,0.3,1.2v19.2"/><line fill="none" stroke="#000000" stroke-width="0.2" stroke-miterlimit="10" x1="94.7" y1="31.9" x2="94.7" y2="36.5"/><line fill="none" stroke="#000000" stroke-width="0.2" stroke-miterlimit="10" x1="93" y1="31.9" x2="93" y2="36.5"/><line fill="none" stroke="#000000" stroke-miterlimit="10" x1="90.8" y1="32.1" x2="90.8" y2="36.1"/><path d="M89.7,60c-1.5-0.4-5.1-7.2-5.1-7.2l-3.5,0C78.8,58.4,76,60,76,60l2.9,1.3l2-2.7c0.1,0.4-1.4,3.1-1.4,3.1c1,0.2,3.4,2.7,3.4,2.7c0.5-0.9,3.4-2.7,3.4-2.7l-1.4-3.2l2,2.8L89.7,60z M83.8,54.6c-0.6,2,1.7,6.7,1.7,6.7c-1.2,0.4-2.5,1.6-2.5,1.6c-0.1-0.4-2.5-1.7-2.5-1.7c1.6-1.5,1.7-6.7,1.7-6.7c-0.5,2.3-3.2,5.9-3.2,5.9l-1.6-0.7c1.7-1.2,4.1-6.8,4.1-6.8c0.9,0.2,1.5,1.1,1.5,1.1c0.4-0.7,1.5-1.1,1.5-1.1c2,5.1,4.3,6.8,4.3,6.8L87,60.5C84.9,58.6,83.8,54.6,83.8,54.6z"/><path fill="#B07F55" d="M88.7,59.9c0,0-2.3-1.7-4.3-6.8c0,0-1.1,0.3-1.5,1.1c0,0-0.5-0.9-1.5-1.1c0,0-2.4,5.6-4.1,6.8l1.6,0.7c0,0,2.7-3.6,3.2-5.9c0,0-0.1,5.1-1.7,6.7c0,0,2.4,1.2,2.5,1.7c0,0,1.3-1.3,2.5-1.6c0,0-2.3-4.6-1.7-6.7c0,0,1.1,4,3.2,5.9L88.7,59.9z"/><path fill="#FED206" d="M83,35.2c-0.2,0-0.3,0-0.3,0c-1.5,0-8.2,0-8.2,0l0.9,0.7v12.6c0,1.7,3.6,3,3.6,3c2.3,0.9,3.3,1.6,3.7,2v0.3c0,0,0-0.1,0.1-0.2c0.1,0.1,0.1,0.2,0.1,0.2v-0.3c0.4-0.4,1.4-1.1,3.7-2c0,0,3.6-1.4,3.6-3V35.9l0.9-0.7C91.2,35.2,84.5,35.2,83,35.2z"/><path fill="#D1202B" d="M82.9,52.7L82.9,52.7c-0.6-0.4-1.7-1-3.7-1.8c-1.4-0.5-3.3-1.6-3.3-2.5V35.7h13.9v12.7c0,1-2.2,2.1-3.3,2.5C84.6,51.7,83.5,52.3,82.9,52.7L82.9,52.7z"/><path fill="#2D4FA2" d="M88.8,43.3h-13v5.2c0,0.9,1.9,2,3.3,2.5c2,0.8,3.1,1.4,3.6,1.8l0,0l0,0c0.6-0.4,1.7-1.1,3.6-1.8c1.1-0.4,3.3-1.5,3.3-2.5v-5.1L88.8,43.3L88.8,43.3z"/><polygon fill="#FED206" stroke="#010203" stroke-width="0.1" stroke-miterlimit="10" points="82.9,36.1 83.4,37.3 84.5,36.8 84,37.9 85.3,38.4 84,38.8 84.6,40 83.4,39.5 82.9,40.8 82.5,39.5 81.3,40.1 81.9,38.8 80.6,38.4 81.9,38 81.3,36.8 82.4,37.3 "/><path fill="#FED206" stroke="#040403" stroke-width="0.1" stroke-miterlimit="10" d="M85.7,36.4c0,0,2.2,4.4-0.5,5.1c0,0-1,0.7-1.2,0c0,0-0.4-0.4-0.6,0l-0.5,0.4l-0.5-0.4c-0.2-0.4-0.6,0-0.6,0c-0.2,0.7-1.2,0-1.2,0c-2.7-0.7-0.5-5.1-0.5-5.1c-5.5,4,0.4,6.6,0.4,6.6l-0.7,1.4l1.1,0.2c1.2,0.4,1.1,2.6,1.1,2.6l0,0.1c0.3,2.1-1,2.7-1,2.7c-0.7,0.4,0,0.9,0,0.9c0.8,0.2,0.6,0.4,1.1,0.7c0.3,0.2,0.7,0.3,0.9,0.3v0c0,0,0,0,0.1,0c0,0,0.1,0,0.1,0v0c0.2,0,0.5-0.1,0.9-0.3c0.5-0.4,0.3-0.5,1.1-0.7c0,0,0.7-0.5,0-0.9c0,0-1.2-0.6-1-2.7l0-0.1c0,0-0.1-2.2,1.1-2.6l1.1-0.2L85.4,43C85.4,43,91.2,40.4,85.7,36.4z"/><polygon fill="#FED206" stroke="#040403" stroke-width="0.1" stroke-miterlimit="10" points="77.9,42.5 79.2,43.3 78,44.3 76.5,43.4 "/><polygon fill="#FED206" stroke="#040403" stroke-width="0.1" stroke-miterlimit="10" points="87.9,42.5 89.1,43.3 87.9,44.3 86.5,43.4 "/><path fill="#040403" d="M79.8,45.2c0,0,0.4-0.2,0.7-0.5c0,0,0.3,0.4,0.7,0.4c0,0-0.5,0.4-0.6,0.7C80.4,45.8,79.9,45.2,79.8,45.2z"/><polygon fill="#FED206" points="80.4,44.8 80.8,45.2 80.4,45.6 80,45.2 "/><path fill="#040403" d="M80.1,46.1c0,0,0.6,2.1,0.2,3.4c0,0,1.1-0.2,1-1.5c0,0,0.3-2-0.5-1.9L80.1,46.1z"/><path fill="#FED206" d="M80.4,46.3l0.2,2.6c0,0,0.8-0.4,0.6-1.7C81.2,47.2,81.3,46.1,80.4,46.3z"/><path fill="#040403" d="M85.9,45.2c0,0-0.4-0.2-0.7-0.5c0,0-0.3,0.4-0.7,0.4c0,0,0.5,0.4,0.6,0.7C85.2,45.8,85.8,45.2,85.9,45.2z"/><polygon fill="#FED206" points="85.3,44.8 84.9,45.2 85.2,45.6 85.7,45.2 "/><path fill="#040403" d="M85.6,46.1c0,0-0.6,2.1-0.2,3.4c0,0-1.1-0.2-1-1.5c0,0-0.3-2,0.5-1.9L85.6,46.1z"/><g><g><path fill="#040403" d="M78,46.6c0.2,0,0.4,0.2,0.4,0.4c0-0.1,0-0.1,0-0.2c0-0.2-0.2-0.5-0.5-0.5c-0.2,0-0.5,0.2-0.5,0.5c0,0.1,0,0.2,0.1,0.3c0,0,0,0,0-0.1C77.6,46.7,77.8,46.6,78,46.6z"/><path fill="#FED206" d="M78,46.6c-0.2,0-0.4,0.2-0.4,0.4c0,0,0,0,0,0.1c0,0.2,0.2,0.4,0.4,0.4c0.2,0,0.4-0.2,0.4-0.4c0,0,0,0,0,0C78.4,46.7,78.2,46.6,78,46.6z"/></g><g><path fill="#040403" d="M79,46.9c0.1,0.2,0,0.4-0.2,0.5c0.1,0,0.1,0,0.2-0.1c0.2-0.1,0.3-0.4,0.2-0.6c-0.1-0.2-0.4-0.3-0.6-0.2c-0.1,0-0.1,0.1-0.2,0.2c0,0,0,0,0,0C78.6,46.7,78.9,46.7,79,46.9z"/><path fill="#FED206" d="M79,46.9c-0.1-0.2-0.4-0.2-0.6-0.1c0,0,0,0,0,0c-0.2,0.1-0.2,0.4-0.1,0.5c0.1,0.2,0.4,0.2,0.6,0.1c0,0,0,0,0,0C79,47.3,79.1,47.1,79,46.9z"/></g><g><path fill="#040403" d="M79,48.1c-0.1,0.2-0.4,0.2-0.6,0.1c0,0,0.1,0.1,0.1,0.1c0.2,0.1,0.5,0.1,0.6-0.1c0.1-0.2,0.1-0.5-0.1-0.6c-0.1-0.1-0.2-0.1-0.3-0.1c0,0,0,0,0,0C79,47.7,79.1,47.9,79,48.1z"/><path fill="#FED206" d="M79,48.1c0.1-0.2,0.1-0.4-0.1-0.6c0,0,0,0,0,0c-0.2-0.1-0.4-0.1-0.5,0.1c-0.1,0.2-0.1,0.4,0.1,0.6c0,0,0,0,0,0C78.6,48.3,78.8,48.3,79,48.1z"/></g><g><path fill="#040403" d="M77.7,48.4c-0.2-0.1-0.3-0.3-0.2-0.5c0,0-0.1,0.1-0.1,0.1c-0.1,0.2,0,0.5,0.2,0.6c0.2,0.1,0.5,0,0.6-0.2c0-0.1,0.1-0.2,0-0.3c0,0,0,0,0,0C78.2,48.4,77.9,48.5,77.7,48.4z"/><path fill="#FED206" d="M77.7,48.4c0.2,0.1,0.4,0,0.6-0.2c0,0,0,0,0,0c0.1-0.2,0-0.4-0.2-0.5c-0.2-0.1-0.4,0-0.6,0.2c0,0,0,0,0,0C77.5,48.1,77.5,48.3,77.7,48.4z"/></g><g><path fill="#040403" d="M77.2,47.3c0-0.2,0.2-0.3,0.5-0.3c0,0-0.1-0.1-0.2-0.1c-0.2,0-0.5,0.1-0.5,0.4c0,0.2,0.1,0.5,0.4,0.5c0.1,0,0.2,0,0.3,0c0,0,0,0-0.1,0C77.3,47.7,77.1,47.5,77.2,47.3z"/><path fill="#FED206" d="M77.2,47.3c0,0.2,0.1,0.4,0.4,0.5c0,0,0,0,0.1,0c0.2,0,0.4-0.1,0.5-0.3c0-0.2-0.1-0.4-0.4-0.5c0,0,0,0,0,0C77.4,47,77.2,47.1,77.2,47.3z"/></g><circle fill="none" stroke="#040403" stroke-width="0.1" stroke-miterlimit="10" cx="78.2" cy="47.5" r="0.6"/></g><path fill="#FED206" stroke="#040403" stroke-width="0.1" stroke-miterlimit="10" d="M88.6,47.2c0,0-2.3-0.1-1.6,2.3c0,0-1-0.5-1.1-1.6c0,0,0.1-1.2,1.3-1.3C87.1,46.6,88.2,46.6,88.6,47.2z"/><path fill="#FED206" d="M85.2,46.3L85,48.9c0,0-0.8-0.4-0.6-1.7C84.5,47.2,84.4,46.1,85.2,46.3z"/><polygon fill="#B07F55" points="86.7,51.5 87.5,52.4 87.8,52 88.3,52.1 88.3,51.6 89.1,51.7 88.5,50.6 "/><polygon fill="#040403" points="88.6,51.1 89.4,52 88.7,51.8 88.5,52.4 88,52.1 87.7,53.1 86.3,51.7 86.6,51.4 87.5,52.4 87.8,51.8 88.2,51.9 88.3,51.4 88.9,51.7 88.3,51.1 "/><polygon fill="#B07F55" points="79.1,51.5 78.2,52.4 77.9,52 77.4,52.1 77.4,51.6 76.7,51.7 77.2,50.6 "/><polygon fill="#040403" points="77.2,51.1 76.4,52 77.1,51.8 77.3,52.4 77.8,52.1 78,53.1 79.4,51.7 79.1,51.4 78.2,52.4 78,51.8 77.5,51.9 77.4,51.4 76.8,51.7 77.4,51.1 "/><g><path fill="#D1202B" stroke="#040403" stroke-width="0.2" stroke-miterlimit="10" d="M76.9,51.8l-1.5,2.5c0,0-1.3-0.2-2.1,0.8c0,0,0.1,1.3,1.2,2.1c0,0,1-0.4,1.3-1c0,0,1-2.4,2.3-3.5L77.9,52l-0.5,0l0-0.4L76.9,51.8z"/><ellipse transform="matrix(-0.6216 -0.7834 0.7834 -0.6216 76.5308 148.5001)" fill="#D1202B" stroke="#040403" stroke-width="0.5" stroke-miterlimit="10" cx="74.1" cy="55.8" rx="0.2" ry="0.5"/><ellipse transform="matrix(-0.6216 -0.7834 0.7834 -0.6216 76.6956 147.7066)" fill="#D1202B" stroke="#040403" stroke-width="0.5" stroke-miterlimit="10" cx="74" cy="55.3" rx="0.1" ry="0.3"/><ellipse transform="matrix(-0.6216 -0.7834 0.7834 -0.6216 76.7902 149.3359)" fill="#D1202B" stroke="#040403" stroke-width="0.5" stroke-miterlimit="10" cx="74.5" cy="56.1" rx="0.2" ry="0.5"/><ellipse transform="matrix(-0.6216 -0.7834 0.7834 -0.6216 77.0879 150.1903)" fill="#D1202B" stroke="#040403" stroke-width="0.5" stroke-miterlimit="10" cx="74.8" cy="56.5" rx="0.2" ry="0.5"/></g><g><path fill="#D1202B" stroke="#040403" stroke-width="0.2" stroke-miterlimit="10" d="M88.7,51.5l1.5,2.5c0,0,1.3-0.2,2.1,0.8c0,0-0.1,1.3-1.2,2.1c0,0-1-0.4-1.3-1c0,0-1-2.4-2.3-3.5l0.2-0.7l0.5,0l0-0.4L88.7,51.5z"/><ellipse transform="matrix(0.6216 -0.7834 0.7834 0.6216 -8.8284 92.6852)" fill="#D1202B" stroke="#040403" stroke-width="0.5" stroke-miterlimit="10" cx="91.5" cy="55.5" rx="0.2" ry="0.5"/><ellipse transform="matrix(0.6216 -0.7834 0.7834 0.6216 -8.445 92.6056)" fill="#D1202B" stroke="#040403" stroke-width="0.5" stroke-miterlimit="10" cx="91.6" cy="55" rx="0.1" ry="0.3"/><ellipse transform="matrix(0.6216 -0.7834 0.7834 0.6216 -9.2322 92.5599)" fill="#D1202B" stroke="#040403" stroke-width="0.5" stroke-miterlimit="10" cx="91.2" cy="55.8" rx="0.2" ry="0.5"/><ellipse transform="matrix(0.6216 -0.7834 0.7834 0.6216 -9.6449 92.416)" fill="#D1202B" stroke="#040403" stroke-width="0.5" stroke-miterlimit="10" cx="90.8" cy="56.2" rx="0.2" ry="0.5"/></g><polygon fill="#F4D40E" stroke="#040403" stroke-width="0.25" stroke-miterlimit="10" points="98.9,40.8 98.9,41.8 98.1,41.4 "/><circle fill="#F4D40E" stroke="#040403" stroke-width="0.25" stroke-miterlimit="10" cx="98.3" cy="42" r="0.4"/><path fill="#F4D40E" stroke="#040403" stroke-width="0.25" stroke-miterlimit="10" d="M96.8,44.4c0,0-0.4-0.2,0-0.4l0.3-0.5L97,42.2l1.2,0.1l0.7,0.9L97.8,44l-0.1,0.6c0,0-0.5,0.1-0.5,0.1C97.1,44.6,96.8,44.4,96.8,44.4z"/><polygon fill="#F4D40E" stroke="#040403" stroke-width="0.25" stroke-miterlimit="10" points="98.1,42.4 97.4,42.5 97.4,43.3 96.9,44.4 97.2,44.6 97.8,43.5 98.4,43 "/><polyline fill="#F4D40E" stroke="#040403" stroke-width="0.25" stroke-miterlimit="10" points="96.6,44.5 96.5,45 95.2,47.6 95.6,47.8 97,45.1 97.3,45 97.1,44.6 "/><polygon fill="#F4D40E" stroke="#040403" stroke-width="0.25" stroke-miterlimit="10" points="95.5,47.8 94.9,47.8 95.1,48.3 95.5,48.2 "/><ellipse transform="matrix(0.9056 0.4241 -0.4241 0.9056 29.5617 -35.7036)" fill="#F4D40E" stroke="#040403" stroke-width="0.25" stroke-miterlimit="10" cx="95" cy="48.6" rx="0.4" ry="0.4"/><ellipse transform="matrix(0.9056 0.4241 -0.4241 0.9056 29.7575 -35.5216)" fill="#F4D40E" stroke="#040403" stroke-width="0.25" stroke-miterlimit="10" cx="94.7" cy="49.1" rx="0.4" ry="0.3"/><polygon fill="#F4D40E" stroke="#040403" stroke-width="0.25" stroke-miterlimit="10" points="93.3,52.3 94.7,49.5 94.3,49.4 92.9,52 "/><ellipse transform="matrix(0.892 0.452 -0.452 0.892 33.9044 -36.2086)" fill="#F4D40E" stroke="#040403" stroke-width="0.25" stroke-miterlimit="10" cx="92.7" cy="52.8" rx="0.6" ry="0.9"/><ellipse fill="#F4D40E" stroke="#040403" stroke-width="0.25" stroke-miterlimit="10" cx="92" cy="53.9" rx="0.5" ry="0.5"/><circle fill="#F4D40E" stroke="#040403" stroke-width="0.25" stroke-miterlimit="10" cx="90.6" cy="57" r="0.3"/><path fill="#F4D40E" stroke="#040403" stroke-width="0.25" stroke-miterlimit="10" d="M89.9,57.1c0,0,0.7,0,1,0.5l-1,0.8L89.9,57.1z"/><path fill="#0B7754" stroke="#040403" stroke-width="0.1" stroke-miterlimit="10" d="M67.7,41.8c0,0,1.2,0.3,1,1.7C68.7,43.5,67.5,43.5,67.7,41.8z"/><path fill="#0B7754" stroke="#040403" stroke-width="0.1" stroke-miterlimit="10" d="M67.1,43.1c0,0,1.5-0.2,1.8,1.3C68.9,44.4,67.6,44.9,67.1,43.1z"/><path fill="#0B7754" stroke="#040403" stroke-width="0.1" stroke-miterlimit="10" d="M69,41.7c0,0,0.6,0.9,0.2,2.2C69.1,43.9,68.3,43,69,41.7z"/><path fill="#0B7754" stroke="#040403" stroke-width="0.1" stroke-miterlimit="10" d="M70.9,45.1c0,0,0.4,1-0.3,2.2C70.6,47.3,70,46.2,70.9,45.1z"/><path fill="#0B7754" stroke="#040403" stroke-width="0.1" stroke-miterlimit="10" d="M70.3,44.2c0,0,0.4,1-0.3,2.2C70,46.4,69.4,45.4,70.3,44.2z"/><path fill="#0B7754" stroke="#040403" stroke-width="0.1" stroke-miterlimit="10" d="M69.8,46.2c0,0-0.7-0.8-2.1-0.7C67.8,45.5,68.4,46.6,69.8,46.2z"/><path fill="#0B7754" stroke="#040403" stroke-width="0.1" stroke-miterlimit="10" d="M70.1,47.1c0,0-0.7-0.8-2.1-0.7C68,46.4,68.6,47.5,70.1,47.1z"/><path fill="#0B7754" stroke="#040403" stroke-width="0.1" stroke-miterlimit="10" d="M72.6,48.8c0,0,0.4,1-0.3,2.2C72.3,51,71.7,49.9,72.6,48.8z"/><path fill="#0B7754" stroke="#040403" stroke-width="0.1" stroke-miterlimit="10" d="M72,47.9c0,0,0.4,1-0.3,2.2C71.7,50.1,71.1,49.1,72,47.9z"/><path fill="#0B7754" stroke="#040403" stroke-width="0.1" stroke-miterlimit="10" d="M71.5,49.9c0,0-0.7-0.8-2.1-0.7C69.5,49.2,70.1,50.3,71.5,49.9z"/><path fill="#0B7754" stroke="#040403" stroke-width="0.1" stroke-miterlimit="10" d="M71.8,50.8c0,0-0.7-0.8-2.1-0.7C69.7,50.1,70.3,51.2,71.8,50.8z"/><path fill="#0B7754" stroke="#040403" stroke-width="0.1" stroke-miterlimit="10" d="M74.3,52.5c0,0,0.4,1-0.3,2.2C74,54.7,73.4,53.6,74.3,52.5z"/><path fill="#0B7754" stroke="#040403" stroke-width="0.1" stroke-miterlimit="10" d="M73.8,51.6c0,0,0.4,1-0.3,2.2C73.4,53.8,72.8,52.8,73.8,51.6z"/><path fill="#0B7754" stroke="#040403" stroke-width="0.1" stroke-miterlimit="10" d="M73.3,53.6c0,0-0.7-0.8-2.1-0.7C71.2,52.9,71.8,54,73.3,53.6z"/><path fill="#0B7754" stroke="#040403" stroke-width="0.1" stroke-miterlimit="10" d="M73.5,54.5c0,0-0.7-0.8-2.1-0.7C71.4,53.8,72,54.8,73.5,54.5z"/><polygon fill="#FED206" stroke="#040403" stroke-width="0.25" stroke-miterlimit="10" points="74.3,55.3 68.8,43.5 68.5,43.5 74,55.4 "/></svg>